<svg version="1.1" x="0px" y="0px" viewBox="0 0 100 125" enable-background="new 0 0 100 100" ><g><rect x="-192" width="185" height="99"/><rect y="-36" width="100" height="30"/><line fill="#000000" stroke="#FFFFFF" stroke-miterlimit="10" x1="8" y1="-14.5" x2="18" y2="-14.5"/><line fill="#000000" stroke="#FFFFFF" stroke-miterlimit="10" x1="-179" y1="16.5" x2="-162" y2="16.5"/><g><g><g><rect x="-170.802" y="31.318" fill="#000000" width="8.721" height="8.642"/><path fill="#000000" d="M-164.455,42.312h4.747v-4.703h-4.747V42.312z M-159.266,42.749h-5.63V37.17h5.63V42.749      L-159.266,42.749z M-166.221,44.062h8.279v-8.203h-8.279V44.062L-166.221,44.062z M-157.5,44.5h-9.163v-9.079h9.163V44.5      L-157.5,44.5z"/><polygon fill="#000000" points="-166.149,44.133 -166.292,43.991 -158.013,35.787 -157.871,35.929     "/></g></g></g><rect x="-179" y="58" fill="none" width="35" height="32.5"/><rect x="-126.514" y="34.815" fill="#000000" width="10.261" height="10.185"/><rect x="-126.477" y="31.766" fill="#000000" width="0.522" height="2.337"/><rect x="-116.812" y="31.766" fill="#000000" width="0.523" height="2.337"/><rect x="-127" y="32.337" fill="#000000" width="11.233" height="0.572"/><g><rect x="-83.805" y="33.844" fill="#000000" width="10.305" height="10.156"/><rect x="-76.809" y="28.707" fill="#000000" width="3.308" height="3.261"/></g><rect x="-178.5" y="22.5" fill="#000000" stroke="#FFFFFF" stroke-miterlimit="10" width="30" height="30"/><rect x="-136.5" y="22.5" fill="#000000" stroke="#FFFFFF" stroke-miterlimit="10" width="30" height="30"/><rect x="-93.5" y="22.5" fill="#000000" stroke="#FFFFFF" stroke-miterlimit="10" width="30" height="30"/><rect x="-49.5" y="22.5" fill="#000000" stroke="#FFFFFF" stroke-miterlimit="10" width="30" height="30"/></g><g><circle cx="49.765" cy="63.176" r="12.853"/><circle cx="32.08" cy="63.744" r="3.632"/><circle cx="34.071" cy="55.601" r="3.632"/><circle cx="39.728" cy="48.93" r="3.632"/><circle cx="47.979" cy="45.769" r="3.632"/><circle cx="56.388" cy="46.674" r="3.632"/><circle cx="63.191" cy="51.789" r="3.632"/><circle cx="34.565" cy="72.405" r="3.633"/><circle cx="41.103" cy="78.605" r="3.633"/><circle cx="49.789" cy="80.729" r="3.633"/><path d="M61.979,79.105c-0.477,1.949-2.441,3.143-4.392,2.667c-1.948-0.478-3.142-2.442-2.665-4.391   c0.477-1.952,2.442-3.143,4.391-2.668C61.262,75.191,62.455,77.156,61.979,79.105z"/><g><path d="M67,37c0,1.65-1.35,3-3,3h-3c-1.65,0-3-1.35-3-3v-9c0-1.65,1.35-3,3-3h3c1.65,0,3,1.35,3,3V37z"/></g><g><path d="M42,37c0,1.65-1.35,3-3,3h-3c-1.65,0-3-1.35-3-3v-9c0-1.65,1.35-3,3-3h3c1.65,0,3,1.35,3,3V37z"/></g><path d="M90,15c-3-5-35-7-40-7s-37,2-40,7S7,26,7,28c0,0.67,0,5,3,5c4,0,12.67,0,14,0c2,0,4-2,4-4s0-6,3-7s19-2,19-2s16,1,19,2   s3,5,3,7s2,4,4,4c1.33,0,10,0,14,0c3,0,3-4.33,3-5C93,26,93,20,90,15z"/><g><path d="M32,93.5c0,0.825-0.9,1.5-2,1.5h-8c-1.1,0-2-0.675-2-1.5s0.9-1.5,2-1.5h8C31.1,92,32,92.675,32,93.5z"/></g><g><path d="M80,93.5c0,0.825-0.9,1.5-2,1.5h-8c-1.1,0-2-0.675-2-1.5s0.9-1.5,2-1.5h8C79.1,92,80,92.675,80,93.5z"/></g><path d="M78.295,39.989C77.206,38.078,76.178,36.311,74,36c-7-1-13.5-1.5-24-1.5S33,35,26,36c-2.178,0.311-3.206,2.078-4.295,3.989   C16,50,14,65,14.295,87.011c0.029,2.2,2.521,5.717,4.705,5.989c8,1,19.5,1.5,31,1.5S73,94,81,93   c2.184-0.272,4.676-3.789,4.705-5.989C86,65,84,50,78.295,39.989z M69.325,74.804L64,71l-1,1l3.636,6.362   c-2.877,3.113-6.667,5.446-11.093,6.528c-1.857,0.454-3.715,0.651-5.543,0.633c-1.828,0.019-3.686-0.179-5.543-0.633   C32.464,81.958,25.12,69.86,28.051,57.868C30.567,47.574,39.839,40.711,50,40.826c10.16-0.115,19.433,6.748,21.949,17.042   C73.418,63.875,72.307,69.909,69.325,74.804z"/></g></svg>